<svg width="81" height="61" viewBox="0 0 81 61" fill="none" xmlns="http://www.w3.org/2000/svg">
<path d="M35 13.2C35 12.0799 35 11.5198 35.218 11.092C35.4097 10.7157 35.7157 10.4097 36.092 10.218C36.5198 10 37.0799 10 38.2 10H48.1562C48.3678 10 48.4737 10 48.5794 10.0007C49.8578 10.0098 51.1343 10.1005 52.4012 10.2723C52.5059 10.2866 52.6107 10.3015 52.8203 10.3315L54.2165 10.5309C56.3944 10.8421 58.5167 11.4622 60.5195 12.3725L61.1012 12.6369C62.3627 13.2103 63.5526 13.9298 64.6464 14.7805L64.8448 14.9348C66.5969 16.2976 68.0556 18.0002 69.1336 19.9405V19.9405C69.7095 20.9771 70.1719 22.0729 70.5126 23.2088L70.8116 24.2052C71.2695 25.7315 71.5798 27.2983 71.7384 28.884L71.7752 29.2515C71.9246 30.7464 71.9164 32.2528 71.7505 33.7459V33.7459C71.584 35.2444 71.2596 36.7212 70.7828 38.1516L70.5751 38.7747C70.1925 39.9224 69.7043 41.0322 69.1168 42.0897V42.0897C68.0466 44.0161 66.6587 45.7478 65.0117 47.2118L64.8068 47.394C63.6062 48.4612 62.2852 49.3899 60.875 50.1591V50.1591C58.646 51.3749 56.2128 52.1839 53.6993 52.543L52.4763 52.7177C51.1604 52.9057 49.8329 53 48.5036 53H38.2C37.0799 53 36.5198 53 36.092 52.782C35.7157 52.5903 35.4097 52.2843 35.218 51.908C35 51.4802 35 50.9201 35 49.8V13.2Z" fill="#333333"/>
<path d="M38 16.2C38 15.0799 38 14.5198 38.218 14.092C38.4097 13.7157 38.7157 13.4097 39.092 13.218C39.5198 13 40.0799 13 41.2 13H49.0164C50.328 13 51.638 13.0956 52.9357 13.286L54.0762 13.4533C55.9165 13.7233 57.7075 14.2602 59.3929 15.0469L59.843 15.257C60.9168 15.7583 61.9274 16.3854 62.8533 17.125L62.9709 17.219C64.4616 18.4097 65.6975 19.888 66.6052 21.566V21.566C67.0833 22.4498 67.4664 23.3816 67.7481 24.3461L68.0026 25.2173C68.3874 26.5347 68.648 27.8852 68.781 29.2511L68.8119 29.5677C68.937 30.8525 68.93 32.1468 68.7912 33.4302V33.4302C68.6515 34.7213 68.379 35.9947 67.9781 37.2299L67.8007 37.7764C67.4838 38.7529 67.0786 39.6985 66.5901 40.6014V40.6014C65.6896 42.2662 64.5159 43.7679 63.1181 45.044L62.9582 45.1899C61.9623 46.0991 60.8654 46.8909 59.689 47.5499V47.5499C57.8131 48.6008 55.7607 49.2995 53.6333 49.6117L52.6484 49.7562C51.5419 49.9185 50.4251 50 49.3068 50H41.2C40.0799 50 39.5198 50 39.092 49.782C38.7157 49.5903 38.4097 49.2843 38.218 48.908C38 48.4802 38 47.9201 38 46.8V16.2Z" fill="#F7F7F7"/>
<path d="M26.0911 4.61777C26.5491 3.76675 26.7781 3.34125 27.0824 3.20141C27.3475 3.07957 27.6525 3.07957 27.9176 3.20141C28.2219 3.34125 28.4509 3.76675 28.9089 4.61777L50.0464 43.8917C50.4649 44.6691 50.6741 45.0578 50.634 45.3753C50.599 45.6523 50.4497 45.9021 50.2224 46.0642C49.9618 46.25 49.5204 46.25 48.6375 46.25H6.36245C5.4796 46.25 5.03817 46.25 4.77763 46.0642C4.55025 45.9021 4.40101 45.6523 4.36602 45.3753C4.32594 45.0578 4.53514 44.6691 4.95355 43.8917L26.0911 4.61777Z" fill="#333333"/>
<path d="M26.0911 10.5178C26.5491 9.66675 26.7781 9.24124 27.0824 9.1014C27.3475 8.97957 27.6525 8.97957 27.9176 9.1014C28.2219 9.24124 28.4509 9.66675 28.9089 10.5178L45.2833 40.9417C45.7017 41.7191 45.9109 42.1078 45.8708 42.4253C45.8358 42.7023 45.6866 42.9521 45.4592 43.1142C45.1987 43.3 44.7573 43.3 43.8744 43.3H11.1256C10.2427 43.3 9.80131 43.3 9.54077 43.1142C9.31339 42.9521 9.16415 42.7023 9.12916 42.4253C9.08907 42.1078 9.29828 41.7191 9.71669 40.9417L26.0911 10.5178Z" fill="#F7F7F7"/>
<rect x="54" width="3" height="43" rx="1.5" fill="#333333"/>
<rect x="49" y="38" width="3" height="32" rx="1.5" transform="rotate(-90 49 38)" fill="#333333"/>
</svg>
